<?xml version="1.0" encoding="utf-8"?>
<!-- Generator: Adobe Illustrator 19.2.1, SVG Export Plug-In . SVG Version: 6.00 Build 0)  -->
<svg version="1.1" id="SVGIconGoogle" xmlns="http://www.w3.org/2000/svg" xmlns:xlink="http://www.w3.org/1999/xlink" x="0px"
	 y="0px" viewBox="0 0 76 76" enable-background="new 0 0 76 76" xml:space="preserve">
<rect fill="#CC3731" width="76" height="76"/>
<path fill="#FFFFFF" d="M36.8,11.9c0.5,0.3,1,0.7,1.6,1.3c0.6,0.6,1.1,1.3,1.7,2.2c0.5,0.8,1,1.8,1.4,2.9c0.3,1.1,0.5,2.4,0.5,3.9
	c0,2.7-0.6,4.9-1.8,6.5c-0.6,0.8-1.2,1.5-1.8,2.2c-0.7,0.7-1.4,1.3-2.2,2c-0.5,0.5-0.9,1-1.3,1.6c-0.5,0.6-0.7,1.3-0.7,2.1
	c0,0.8,0.2,1.4,0.7,2c0.4,0.5,0.8,0.9,1.1,1.3l2.6,2.1c1.6,1.3,3,2.7,4.2,4.3c1.1,1.6,1.7,3.7,1.8,6.3c0,3.7-1.6,6.9-4.9,9.8
	c-3.4,2.9-8.2,4.4-14.5,4.5c-5.3,0-9.3-1.2-11.9-3.4c-2.6-2.1-4-4.5-4-7.4c0-1.4,0.4-3,1.3-4.7c0.8-1.7,2.3-3.2,4.5-4.5
	c2.4-1.4,5-2.3,7.7-2.8c2.7-0.4,4.9-0.6,6.7-0.7c-0.5-0.7-1-1.5-1.5-2.3c-0.5-0.8-0.7-1.7-0.7-2.9c0-0.7,0.1-1.2,0.3-1.7
	c0.2-0.5,0.3-0.9,0.5-1.3c-0.9,0.1-1.7,0.1-2.4,0.1c-4,0-7.1-1.3-9.2-3.8c-2.2-2.3-3.3-5-3.3-8.1c0-3.7,1.6-7.1,4.7-10.1
	c2.2-1.8,4.4-2.9,6.7-3.5C26.8,9.4,29,9.2,31,9.2h15.1l-4.7,2.7H36.8z M39.7,55.5c0-1.9-0.6-3.6-1.9-5c-1.3-1.4-3.4-3-6.2-5
	c-0.5,0-1-0.1-1.7-0.1c-0.4,0-1.4,0-3,0.1c-1.6,0.2-3.2,0.6-4.8,1.1c-0.4,0.1-0.9,0.4-1.6,0.7c-0.7,0.3-1.4,0.8-2.1,1.4
	c-0.7,0.6-1.3,1.4-1.8,2.3c-0.6,1-0.8,2.1-0.8,3.5c0,2.7,1.2,4.9,3.6,6.6c2.3,1.7,5.4,2.6,9.4,2.7c3.6-0.1,6.3-0.8,8.2-2.4
	C38.8,59.8,39.7,57.9,39.7,55.5z M29.2,33.3c2-0.1,3.7-0.8,5-2.1c0.6-1,1.1-1.9,1.2-3c0.1-1,0.2-1.9,0.2-2.6c0-3-0.8-6-2.3-9
	c-0.7-1.5-1.7-2.6-2.8-3.6c-1.2-0.9-2.6-1.3-4.1-1.4c-2.1,0-3.8,0.9-5.1,2.5c-1.1,1.7-1.7,3.6-1.6,5.6c0,2.7,0.8,5.6,2.4,8.5
	c0.8,1.4,1.8,2.6,3,3.5C26.2,32.8,27.6,33.3,29.2,33.3z"/>
<polygon fill="#FFFFFF" points="66.6,17.4 58.7,17.4 58.7,9.5 54.8,9.5 54.8,17.4 46.9,17.4 46.9,21.3 54.8,21.3 54.8,29.2 
	58.7,29.2 58.7,21.3 66.6,21.3 "/>
</svg>
