<?xml version="1.0" encoding="utf-8"?>
<!-- Generator: Adobe Illustrator 19.2.1, SVG Export Plug-In . SVG Version: 6.00 Build 0)  -->
<svg version="1.1" id="SVGIconLinkedin" xmlns="http://www.w3.org/2000/svg" xmlns:xlink="http://www.w3.org/1999/xlink" x="0px"
	 y="0px" viewBox="0 0 76 76" enable-background="new 0 0 76 76" xml:space="preserve">
<rect fill="#027BB5" width="76" height="76"/>
<path fill="#FFFFFF" d="M13,29.3h10.7v34.4H13V29.3z M18.4,12.2c3.4,0,6.2,2.8,6.2,6.2c0,3.4-2.8,6.2-6.2,6.2
	c-3.4,0-6.2-2.8-6.2-6.2C12.2,15,14.9,12.2,18.4,12.2"/>
<path fill="#FFFFFF" d="M30.4,29.3h10.3V34h0.1c1.4-2.7,4.9-5.6,10.1-5.6c10.8,0,12.8,7.1,12.8,16.4v18.9H53.1V47
	c0-4-0.1-9.1-5.6-9.1c-5.6,0-6.4,4.4-6.4,8.8v17H30.4V29.3z"/>
</svg>
