<?xml version="1.0" encoding="utf-8"?>
<!-- Generator: Adobe Illustrator 19.2.1, SVG Export Plug-In . SVG Version: 6.00 Build 0)  -->
<svg version="1.1" id="SVGIconTwitter" xmlns="http://www.w3.org/2000/svg" xmlns:xlink="http://www.w3.org/1999/xlink" x="0px"
	 y="0px" viewBox="0 0 76 76" enable-background="new 0 0 76 76" xml:space="preserve">
<rect fill="#29A7DF" width="76" height="76"/>
<path fill="#FFFFFF" d="M63.3,22.3c-1.9,0.8-3.9,1.4-6,1.6c2.1-1.3,3.8-3.3,4.6-5.8c-2,1.2-4.2,2.1-6.6,2.5c-1.9-2-4.6-3.3-7.6-3.3
	c-5.7,0-10.4,4.7-10.4,10.4c0,0.8,0.1,1.6,0.3,2.4c-8.6-0.4-16.3-4.6-21.4-10.9c-0.9,1.5-1.4,3.3-1.4,5.2c0,3.6,1.8,6.8,4.6,8.7
	c-1.7-0.1-3.3-0.5-4.7-1.3V32c0,5,3.6,9.2,8.3,10.2c-0.9,0.2-1.8,0.4-2.7,0.4c-0.7,0-1.3-0.1-2-0.2c1.3,4.1,5.2,7.1,9.7,7.2
	c-3.6,2.8-8,4.4-12.9,4.4c-0.8,0-1.7-0.1-2.5-0.1c4.6,2.9,10.1,4.7,15.9,4.7c19.1,0,29.6-15.8,29.6-29.6c0-0.4,0-0.9,0-1.3
	C60.2,26.2,61.9,24.4,63.3,22.3z"/>
</svg>
